<svg width="128" height="128" viewBox="0 0 128 128" fill="none" xmlns="http://www.w3.org/2000/svg">
<path d="M64 128C99.3462 128 128 99.3462 128 64C128 28.6538 99.3462 0 64 0C28.6538 0 0 28.6538 0 64C0 99.3462 28.6538 128 64 128Z" fill="#50E3C2"/>
<path d="M111.456 53.7584C111.456 40.4154 90.2535 29.5995 64.1062 29.5995C37.9589 29.5995 16.7684 40.4154 16.7684 53.7584V80.3955C16.7659 81.3237 16.8698 82.2492 17.0782 83.1544C19.7549 95.1911 39.7929 104.591 64.1062 104.591C88.4195 104.591 108.47 95.2278 111.196 83.191C111.398 82.2848 111.502 81.36 111.506 80.4321V53.7706L111.456 53.7584Z" fill="#FFD087"/>
<path d="M64.1086 105.714C39.4731 105.714 18.7535 96.1188 15.9281 83.3985C15.706 82.4124 15.5938 81.4054 15.5935 80.3954V53.7583C15.5935 39.7927 37.354 28.4396 64.1086 28.4396C90.8632 28.4396 112.636 39.7927 112.636 53.7583V80.3954C112.636 81.4054 112.524 82.4124 112.302 83.3985C109.476 96.1188 88.7565 105.714 64.1086 105.714ZM64.1086 30.7591C38.6552 30.7591 17.948 41.0746 17.948 53.7583V80.3954C17.9516 81.2366 18.0429 82.0752 18.2206 82.898C20.823 94.5807 40.5264 103.382 64.0714 103.382C87.6164 103.382 107.369 94.5807 109.922 82.898C110.148 82.0807 110.281 81.2414 110.319 80.3954V53.7583C110.319 41.1112 89.562 30.7591 64.1086 30.7591V30.7591Z" fill="#7B413B"/>
<path d="M111.457 53.7581C111.457 58.9504 111.486 64.1346 111.544 69.3106C111.544 73.5955 112.213 78.6739 107.591 81.152C107.367 81.271 107.124 81.3495 106.872 81.384C102.944 81.7624 102.423 74.7552 97.6897 78.4664C95.075 80.5172 94.2695 84.1429 92.4354 86.7554C90.7835 89.2916 88.3711 91.2585 85.533 92.3831C78.9157 94.7269 74.9874 89.3556 69.4233 87.2192C67.7382 86.5038 65.8502 86.4 64.0947 86.9263C61.9013 87.7075 60.3771 89.6974 58.5306 91.0525C53.7225 94.556 47.006 93.14 43.0777 89.0382C41.1321 86.9995 39.1494 84.7045 36.3859 84.0453C32.7798 83.1907 29.1985 85.0951 25.5924 83.9476C21.9778 82.5638 19.0677 79.8244 17.5004 76.33C17.2154 75.7318 16.9427 75.1093 16.7073 74.5233V53.7703C16.7073 40.4273 37.8978 29.6114 64.0451 29.6114C90.1925 29.6114 111.457 40.4151 111.457 53.7581Z" fill="white"/>
<path d="M110.661 53.7583C110.661 59.8621 110.797 66.0758 110.809 72.2285C110.809 74.4014 110.71 76.7941 109.372 78.6253C108.74 79.5164 107.526 80.7128 106.336 80.6151C105.55 80.4503 104.848 80.0181 104.353 79.3943C103.552 78.3561 102.549 77.4848 101.404 76.8307C100.696 76.6078 99.9396 76.5775 99.2154 76.7429C98.4912 76.9084 97.8258 77.2635 97.2896 77.7707C95.3441 79.2601 94.3279 81.433 93.2746 83.6182C92.1609 86.067 90.4904 88.2307 88.3921 89.9417C87.3404 90.8278 86.1032 91.4742 84.7687 91.8351C83.4342 92.1959 82.0353 92.2622 80.6718 92.0293C78.4072 91.3738 76.2766 90.3326 74.3766 88.9529C70.2129 86.3771 65.5782 84.3507 61.2658 87.8176C59.0724 89.5755 57.3251 91.4799 54.4253 92.1025C51.8382 92.5738 49.1651 92.1421 46.8661 90.8817C44.5116 89.661 43.0122 87.5491 41.0419 85.8156C39.2426 84.0865 36.8386 83.1034 34.3253 83.0688C31.2025 83.0688 28.1293 84.192 25.1304 82.9346C22.6166 81.7835 20.5259 79.8944 19.145 77.5266C18.3007 76.4657 17.7615 75.2008 17.5836 73.8643V70.91C17.5836 65.3433 17.5836 59.7766 17.5836 54.21C17.5836 47.6178 22.3174 42.6615 27.6708 39.28C36.3452 33.7866 46.9901 31.4061 57.1516 30.637C68.5913 29.6289 80.1183 31.0057 90.982 34.6777C98.2314 37.2535 106.819 41.6727 109.806 49.1926C110.386 50.6474 110.688 52.1953 110.698 53.7583C110.722 53.9471 110.815 54.1208 110.96 54.2467C111.105 54.3726 111.292 54.4421 111.485 54.4421C111.678 54.4421 111.865 54.3726 112.009 54.2467C112.154 54.1208 112.248 53.9471 112.272 53.7583C112.185 46.0186 105.791 40.3299 99.4211 36.7652C89.7552 31.345 78.3297 29.2697 67.3751 28.9035C55.9 28.5007 44.016 30.0266 33.4207 34.5312C26.3944 37.5343 18.4139 42.5761 16.4063 50.4012C16.012 52.3822 15.8704 54.404 15.985 56.4195V66.4298C15.985 69.0056 15.9231 71.5937 15.985 74.1695C16.1832 75.5337 16.7101 76.8313 17.5216 77.9538C18.799 80.1912 20.6004 82.0955 22.7759 83.5083C25.2564 84.9404 28.1794 85.4391 31.0042 84.9122C32.6387 84.6074 34.3121 84.5621 35.9611 84.7779C37.5903 85.1808 39.0718 86.0269 40.2364 87.2194C42.1324 88.9895 43.6814 90.955 46.0235 92.2002C48.1837 93.375 50.6353 93.9291 53.0994 93.7994C55.4393 93.6553 57.6769 92.8026 59.5061 91.3578C62.2571 89.1971 64.2894 86.6335 68.1806 87.6955C73.0135 88.9774 76.4461 93.3843 81.6012 93.7994C86.7563 94.2144 91.5149 90.1371 93.8694 85.8888C95.183 83.4473 96.0504 80.5907 98.3677 78.9305C100.14 77.7097 101.206 78.4421 102.494 79.8216C103.346 80.9995 104.6 81.8358 106.026 82.1777C108.046 82.4463 109.905 80.7128 110.896 79.138C111.916 77.2652 112.408 75.1576 112.321 73.0342C112.396 70.1165 112.321 67.1745 112.235 64.2569C112.235 60.7655 112.235 57.2741 112.235 53.7827C112.214 53.5934 112.123 53.418 111.98 53.2897C111.837 53.1614 111.652 53.089 111.459 53.086C111.265 53.083 111.077 53.1497 110.931 53.2735C110.784 53.3973 110.688 53.5697 110.661 53.7583V53.7583Z" fill="#7B413B"/>
<path d="M105.357 41.9165C105.357 36.6061 103.077 25.5704 95.7905 23.8858C87.748 22.018 81.2173 27.4382 78.1317 30.6854C68.8251 29.2369 59.3454 29.2369 50.0388 30.6854C46.9532 27.4382 40.4101 22.018 32.3677 23.8858C25.0935 25.5704 22.7514 36.6061 22.8133 41.9165C18.947 45.4078 16.7412 49.4486 16.7412 53.7579C16.7412 67.1008 37.9317 77.9046 64.0791 77.9046C90.2264 77.9046 111.429 67.1008 111.429 53.7579C111.454 49.4486 109.248 45.4078 105.357 41.9165Z" fill="white"/>
<path d="M64.1066 79.2233C37.2653 79.2233 15.4304 67.7969 15.4304 53.7581C15.4304 49.3878 17.5371 45.1029 21.5026 41.3429C21.6141 36.4599 23.6464 24.5696 32.0978 22.6042C40.3386 20.6998 47.0303 25.7294 50.5497 29.2818C59.5422 27.9633 68.6834 27.9633 77.676 29.2818C81.1953 25.7294 87.8747 20.7364 96.1278 22.6042C104.579 24.5696 106.612 36.5087 106.711 41.3429C110.689 45.1029 112.795 49.3878 112.795 53.7581C112.795 67.7969 90.9479 79.2233 64.1066 79.2233ZM35.7039 24.826C34.6944 24.8286 33.6884 24.9432 32.705 25.1678C26.1868 26.6816 24.1173 37.29 24.1792 41.9045V42.4905L23.7455 42.8811C20.0279 46.226 18.1071 49.986 18.1071 53.7581C18.1071 66.3442 38.74 76.5986 64.1066 76.5986C89.4733 76.5986 110.119 66.3442 110.119 53.7581C110.119 49.986 108.173 46.226 104.48 42.8811L104.034 42.4905V41.9045C104.034 37.29 102.026 26.6816 95.5082 25.1678C88.1597 23.4709 82.0876 28.4517 79.1259 31.589L78.6426 32.0895L77.9362 31.9797C68.7674 30.5759 59.4335 30.5759 50.2646 31.9797L49.5583 32.0895L49.075 31.589C46.5346 28.9034 41.6769 24.826 35.7039 24.826Z" fill="#7B413B"/>
<path d="M87.3044 55.6626C89.6519 55.6626 91.5549 53.7879 91.5549 51.4753C91.5549 49.1628 89.6519 47.2881 87.3044 47.2881C84.957 47.2881 83.054 49.1628 83.054 51.4753C83.054 53.7879 84.957 55.6626 87.3044 55.6626Z" fill="#7D3D42"/>
<path d="M87.3041 55.7598C86.4487 55.7598 85.6126 55.5099 84.9013 55.0418C84.1901 54.5736 83.6358 53.9082 83.3085 53.1297C82.9811 52.3512 82.8955 51.4946 83.0624 50.6681C83.2292 49.8417 83.6411 49.0825 84.246 48.4867C84.8508 47.8909 85.6214 47.4851 86.4604 47.3207C87.2993 47.1563 88.1689 47.2407 88.9591 47.5631C89.7494 47.8856 90.4249 48.4317 90.9001 49.1323C91.3753 49.8329 91.6289 50.6567 91.6289 51.4993C91.6289 52.6292 91.1733 53.7129 90.3622 54.5119C89.5512 55.3109 88.4511 55.7598 87.3041 55.7598ZM87.3041 47.3853C86.4776 47.3829 85.669 47.6221 84.9806 48.0727C84.2922 48.5233 83.755 49.165 83.437 49.9165C83.119 50.668 83.0346 51.4956 83.1943 52.2944C83.354 53.0932 83.7508 53.8274 84.3343 54.404C84.9179 54.9806 85.662 55.3736 86.4724 55.5333C87.2828 55.693 88.1232 55.6123 88.887 55.3013C89.6508 54.9903 90.3037 54.463 90.7632 53.7862C91.2226 53.1094 91.4678 52.3135 91.4678 51.4993C91.4711 50.958 91.3659 50.4214 91.1583 49.9203C90.9506 49.4191 90.6447 48.9633 90.2579 48.5788C89.871 48.1944 89.411 47.8889 88.9042 47.6799C88.3973 47.4709 87.8536 47.3625 87.3041 47.3609V47.3853Z" fill="#D53D2C"/>
<path d="M40.4766 55.6626C42.824 55.6626 44.7271 53.7879 44.7271 51.4753C44.7271 49.1628 42.824 47.2881 40.4766 47.2881C38.1291 47.2881 36.2261 49.1628 36.2261 51.4753C36.2261 53.7879 38.1291 55.6626 40.4766 55.6626Z" fill="#7D3D42"/>
<path d="M40.4775 55.7598C39.6227 55.7573 38.7877 55.5054 38.0781 55.0358C37.3685 54.5662 36.8161 53.9 36.4907 53.1213C36.1653 52.3425 36.0814 51.4863 36.2497 50.6606C36.4179 49.835 36.8308 49.077 37.4361 48.4824C38.0415 47.8878 38.8121 47.4832 39.6507 47.3198C40.4893 47.1564 41.3582 47.2415 42.1478 47.5643C42.9373 47.8871 43.612 48.4332 44.0867 49.1336C44.5614 49.8339 44.8147 50.6572 44.8147 51.4993C44.8114 52.6303 44.353 53.714 43.54 54.5126C42.727 55.3113 41.6257 55.7598 40.4775 55.7598V55.7598ZM40.4775 47.3853C39.65 47.3829 38.8403 47.6228 38.1514 48.0744C37.4625 48.5261 36.9253 49.1692 36.6081 49.9221C36.2908 50.6751 36.2078 51.5039 36.3696 52.3034C36.5313 53.1029 36.9306 53.837 37.5166 54.4126C38.1026 54.9882 38.849 55.3793 39.6611 55.5363C40.4732 55.6932 41.3143 55.609 42.0776 55.2942C42.841 54.9795 43.4922 54.4484 43.9487 53.7684C44.4051 53.0883 44.6461 52.2901 44.6412 51.4749C44.6412 50.3859 44.203 49.3413 43.4225 48.5702C42.642 47.799 41.5829 47.3641 40.4775 47.3609V47.3853Z" fill="#D53D2C"/>
<path d="M73.2984 57.5913C73.1128 57.5465 72.9168 57.5751 72.7524 57.671C72.5879 57.7668 72.4681 57.9222 72.4185 58.104C71.9228 59.9718 69.3329 60.3502 67.66 60.0084C66.8409 59.8623 66.0953 59.4496 65.5426 58.8365C64.9899 58.2234 64.662 57.4453 64.6115 56.6269C64.6115 56.6269 64.6115 56.5536 64.6115 56.517V56.3827L64.5372 56.2606L64.4628 56.163L64.3265 56.0653H64.2397H64.0786H63.9919H63.8432H63.7564H63.5954H63.5086L63.3723 56.163V56.2484L63.2855 56.3827V56.517C63.2855 56.517 63.2855 56.578 63.2855 56.6269C63.235 57.4453 62.9072 58.2234 62.3545 58.8365C61.8017 59.4496 61.0561 59.8623 60.2371 60.0084C58.5642 60.3502 55.9742 60.0084 55.4785 58.104C55.4292 57.9211 55.3082 57.7649 55.142 57.6699C54.9758 57.5749 54.7782 57.5488 54.5925 57.5974C54.4068 57.6459 54.2483 57.7652 54.1518 57.9289C54.0554 58.0926 54.0289 58.2873 54.0782 58.4702C54.6978 60.7897 57.1019 61.5343 59.1094 61.5343C59.5871 61.5333 60.0638 61.4924 60.5345 61.4123C61.2546 61.2641 61.9357 60.9707 62.535 60.5505C63.1343 60.1303 63.6388 59.5924 64.0167 58.9707C64.3916 59.5948 64.8953 60.1346 65.4951 60.5551C66.0948 60.9757 66.7775 61.2677 67.4989 61.4123C67.9653 61.493 68.438 61.5338 68.9116 61.5343C70.9191 61.5343 73.3232 60.7897 73.9428 58.4702C73.9662 58.3702 73.9676 58.2663 73.947 58.1657C73.9263 58.0651 73.8841 57.9699 73.823 57.8867C73.762 57.8035 73.6836 57.734 73.5931 57.6831C73.5026 57.6321 73.4021 57.6008 73.2984 57.5913V57.5913Z" fill="#7D3D42"/>
<path d="M101.711 54.3564C101.541 54.3565 101.376 54.298 101.244 54.191C101.113 54.084 101.024 53.9353 100.992 53.7704C100.963 53.5831 101.009 53.392 101.12 53.2372C101.231 53.0825 101.398 52.976 101.587 52.9403L106.606 52.098C106.699 52.0823 106.795 52.085 106.888 52.106C106.98 52.1271 107.068 52.1659 107.145 52.2204C107.222 52.2749 107.288 52.3439 107.338 52.4235C107.388 52.503 107.421 52.5916 107.436 52.684C107.454 52.7755 107.453 52.8696 107.433 52.9607C107.413 53.0518 107.375 53.1381 107.321 53.2143C107.266 53.2906 107.197 53.3554 107.117 53.4048C107.037 53.4542 106.947 53.4872 106.854 53.5019L101.785 54.393L101.711 54.3564Z" fill="#7D3D42"/>
<path d="M106.602 59.5443C106.528 59.5559 106.452 59.5559 106.378 59.5443L101.484 57.9573C101.393 57.9284 101.31 57.8823 101.237 57.8216C101.165 57.7609 101.106 57.6868 101.063 57.6034C101.019 57.5201 100.993 57.4293 100.986 57.336C100.978 57.2428 100.99 57.149 101.019 57.06C101.048 56.971 101.095 56.8886 101.157 56.8175C101.218 56.7463 101.294 56.6878 101.378 56.6453C101.463 56.6028 101.555 56.5771 101.65 56.5697C101.744 56.5623 101.839 56.5734 101.93 56.6022L106.887 58.1526C107.074 58.1898 107.239 58.2988 107.344 58.4557C107.45 58.6125 107.488 58.8043 107.45 58.9888C107.413 59.1734 107.302 59.3356 107.143 59.4397C106.984 59.5439 106.789 59.5815 106.602 59.5443V59.5443Z" fill="#7D3D42"/>
<path d="M26.2573 54.356H26.121L21.0898 53.4527C20.9027 53.4199 20.7363 53.3155 20.6272 53.1622C20.518 53.0089 20.4749 52.8193 20.5074 52.6348C20.5436 52.4487 20.6517 52.2837 20.8088 52.1744C20.9659 52.0652 21.1599 52.0201 21.35 52.0488L26.4184 52.94C26.609 52.9562 26.7853 53.0463 26.9085 53.1905C27.0317 53.3347 27.0916 53.5213 27.0752 53.709C27.0588 53.8968 26.9673 54.0705 26.8209 54.1918C26.6744 54.3132 26.4851 54.3722 26.2945 54.356H26.2573Z" fill="#7D3D42"/>
<path d="M21.3539 59.5446C21.2026 59.5443 21.0552 59.4969 20.9328 59.4092C20.8105 59.3215 20.7193 59.198 20.6723 59.0563C20.6254 58.8878 20.6422 58.7081 20.7197 58.5509C20.7972 58.3937 20.9301 58.2696 21.0937 58.2018L26.0505 56.6514C26.2313 56.5936 26.428 56.6086 26.5975 56.6933C26.767 56.7779 26.8956 56.9253 26.9551 57.1031C27.0143 57.2828 26.9993 57.4782 26.9136 57.6472C26.8278 57.8162 26.6781 57.9452 26.4966 58.0064L21.5398 59.5568C21.4776 59.5608 21.415 59.5567 21.3539 59.5446V59.5446Z" fill="#7D3D42"/>
<path d="M91.9891 60.6312C94.3845 60.6312 96.3263 59.6146 96.3263 58.3606C96.3263 57.1066 94.3845 56.09 91.9891 56.09C89.5937 56.09 87.6519 57.1066 87.6519 58.3606C87.6519 59.6146 89.5937 60.6312 91.9891 60.6312Z" fill="#F397B7"/>
<path d="M36.0267 60.6312C38.4221 60.6312 40.3639 59.6146 40.3639 58.3606C40.3639 57.1066 38.4221 56.09 36.0267 56.09C33.6313 56.09 31.6895 57.1066 31.6895 58.3606C31.6895 59.6146 33.6313 60.6312 36.0267 60.6312Z" fill="#F397B7"/>
</svg>
